<svg id="Layer_1" data-name="Layer 1" xmlns="http://www.w3.org/2000/svg" xmlns:xlink="http://www.w3.org/1999/xlink" viewBox="0 0 436.02 275.39" width="406" height="306" class="illustration styles_illustrationTablet__1DWOa"><defs><linearGradient id="linear-gradient" x1="270.9" y1="225.96" x2="366.71" y2="70.4" gradientUnits="userSpaceOnUse"><stop offset="0" stop-opacity="0"></stop><stop offset="0.99"></stop></linearGradient><linearGradient id="linear-gradient-2" x1="245.36" y1="249.17" x2="144.54" y2="171.72" xlink:href="#linear-gradient"></linearGradient><linearGradient id="linear-gradient-3" x1="305.42" y1="112.5" x2="194.02" y2="268.08" xlink:href="#linear-gradient"></linearGradient><linearGradient id="linear-gradient-4" x1="318.83" y1="140.19" x2="307.82" y2="154.21" gradientUnits="userSpaceOnUse"><stop offset="0" stop-color="#e5c5d5"></stop><stop offset="0.42" stop-color="#ead4d1"></stop><stop offset="1" stop-color="#f0e9cb"></stop></linearGradient><linearGradient id="linear-gradient-5" x1="307.91" y1="159.87" x2="319.1" y2="128.82" xlink:href="#linear-gradient"></linearGradient><linearGradient id="linear-gradient-6" x1="334.32" y1="129.99" x2="344.49" y2="129.99" xlink:href="#linear-gradient-4"></linearGradient><linearGradient id="linear-gradient-7" x1="310.98" y1="126.38" x2="327.75" y2="129.01" xlink:href="#linear-gradient-4"></linearGradient><linearGradient id="linear-gradient-8" x1="284.92" y1="143.98" x2="304.68" y2="143.98" xlink:href="#linear-gradient-4"></linearGradient><linearGradient id="linear-gradient-9" x1="274.63" y1="158.98" x2="276.37" y2="250.09" xlink:href="#linear-gradient"></linearGradient></defs><title>Waiting the process</title><path d="M12.86,187.29c-1.26,39.64,29.57,77.86,68.58,85,25.31,4.64,53.09-2.22,76,9.43,14.11,7.17,24.22,20.41,37.73,28.66,17.05,10.4,38,12,58,11.1,21.19-.94,43.66-5,59.13-19.49,18.39-17.24,22.6-45.05,38.45-64.65,13.25-16.39,34.5-27,41.68-46.77,6.6-18.21-1.43-39.21-15.08-52.95s-32-21.63-50.1-28.58-36.55-13.43-52.13-25.2c-11.22-8.47-20.42-20.47-33.24-26.68-29.49-14.28-77.06-15.23-105.35,1.59C99.8,80.6,87.38,131.57,49.34,151.07c-12.25,6.28-27.72,9.92-33.68,22.34-2.06,4.28-2.65,9.13-2.8,13.88" transform="translate(-10.33 -46.29)" fill="#dc605c" opacity="0.18" style="isolation: isolate;"></path><path d="M444.12,215.69a30.76,30.76,0,0,1-30.77,30.77h-370a30.77,30.77,0,0,1-30.77-30.77" transform="translate(-10.33 -46.29)" fill="#fff"></path><path d="M12.55,215.69a30.77,30.77,0,0,1,30.77-30.77h370a30.77,30.77,0,0,1,30.77,30.77" transform="translate(-10.33 -46.29)" fill="#fff"></path><path d="M446.35,215.69a33,33,0,0,1-33,33h-370a33,33,0,0,1-33-33" transform="translate(-10.33 -46.29)" fill="#dc605c"></path><path d="M10.33,215.69a33,33,0,0,1,33-33h370a33,33,0,0,1,33,33" transform="translate(-10.33 -46.29)" fill="#dc605c"></path><path style="z-index: 8;" d="M441.9,215.69a28.57,28.57,0,0,0-28.55-28.54h-370a28.55,28.55,0,1,0,0,57.09h370a28.58,28.58,0,0,0,28.55-28.55" transform="translate(-10.33 -46.29)" fill="#fff"></path><path d="M278.9,127c4.64-2.07,9.62-4.37,14.61-3.38,3.78.76,6.93,3.31,9.85,5.83q5.24,4.49,10.3,9.18c3,2.79,6.19,6.07,6.32,10.18.11,3.47,4.42,34.56,1,34.79-7.51.5-56.32.35-94.63.85-3.92.05-2.94,1-5.95-1.49-8.43-7-8.27-33.47,2.14-39.08,7.56-4.07,18.56-4.06,26.84-6.32C259.53,134.8,268.94,130.34,278.9,127Z" transform="translate(-10.33 -46.29)" fill="#fff"></path><path d="M264.48,132.29c-6.59,6.77-13.79,15.59-15.9,24.79-.74,3.23,4,11.95,49.7,3.26,1.33-.26,8.48-9.25,7.88-11.65s-16.63-1.14-19.07-1.52c-1.13-.18-2.28.05-3.4-.12s-8.48,2.74-8.49,1.6c0-1.42,7.84-5.83,9.19-6.28,6.67-2.2,26.28-3.82,10-15C285.27,121.16,271,125.64,264.48,132.29Z" transform="translate(-10.33 -46.29)" fill="url(#linear-gradient-3)"></path><path d="M298.52,170.85a9.12,9.12,0,0,0,.43,4.92,8.87,8.87,0,0,0,3.83,3.64c10.52,6.19,23.51,5.79,35.7,5.2,2.59-.13,17.65.09,20-1,4.36-2,8.52-8.39,3.88-18.4C360,160,347.21,141.87,345.72,136.3c-3.82-1.28-8.36-.55-9.26,3.38s11.73,24.65,9.26,27.67c-5.23,6.39-16.4-10-27.16-22.29C312.42,138.07,299.45,163.22,298.52,170.85Z" transform="translate(-10.33 -46.29)" fill="#fff"></path><path d="M308.48,141.6a13.69,13.69,0,0,0-3,3.57,4.73,4.73,0,0,0-.12,4.47c1.11,1.87.73,6.19,13.75,2.18,1.15-.35,5.12-9.22,5.12-10.43a9.08,9.08,0,0,0-1.92-6C317.42,129.76,311.78,138.43,308.48,141.6Z" transform="translate(-10.33 -46.29)" fill="url(#linear-gradient-4)"></path><path d="M305.08,150.54l4-2.45a.77.77,0,0,1,.28-.12.85.85,0,0,1,.55.15A9.57,9.57,0,0,0,320.15,147c-1.6-.18-2.91-1.28-4.2-2.24a35.64,35.64,0,0,0-4.75-3,2.8,2.8,0,0,0-1.25-.41,2.66,2.66,0,0,0-1.8,1,14.89,14.89,0,0,0-3.48,5.4" transform="translate(-10.33 -46.29)" fill="url(#linear-gradient-5)"></path><path d="M264.23,126.54c-6.59,6.76-13.79,15.58-15.9,24.78-.74,3.23-3.76,15,41.95,6.33,1.33-.25,1.06-2.48,1.26-3.82a18.82,18.82,0,0,0,.13-7.36c-.6-2.4-2.39-4.68-4.83-5.06-1.13-.18-2.28.05-3.4-.12S275,144,275,142.89c0-1.42,7.84-5.83,9.19-6.27,6.67-2.21,26.28-3.83,10-15C285,115.4,270.71,119.88,264.23,126.54Z" transform="translate(-10.33 -46.29)" fill="#fff"></path><path d="M264.23,126.54c-6.59,6.76-13.79,15.58-15.9,24.78-.74,3.23-3.76,15,41.95,6.33,1.33-.25,1.06-2.48,1.26-3.82a18.82,18.82,0,0,0,.13-7.36c-.6-2.4-2.39-4.68-4.83-5.06-1.13-.18-2.28.05-3.4-.12S275,144,275,142.89c0-1.42,7.84-5.83,9.19-6.27,6.67-2.21,26.28-3.83,10-15C285,115.4,270.71,119.88,264.23,126.54Z" transform="translate(-10.33 -46.29)" fill="#fff"></path><path d="M340.86,119.86c1.59.09,2.58,1.87,2.65,3.46s-.46,3.17-.44,4.77a14.78,14.78,0,0,0,.8,3.92c.7,2.41,1.3,5.61-1.05,7.35a4.84,4.84,0,0,1-4.75.28c-4.9-2-4.37-6.46-2-10.24C336.63,128.58,340.86,119.86,340.86,119.86Z" transform="translate(-10.33 -46.29)" fill="url(#linear-gradient-6)"></path><path d="M307,132.77c-.23,3.85.21,7.88,2.4,11.14s6.51,5.48,10.48,4.5c2.59-.65,4.63-2.47,6.46-4.3,6.16-6.16,11.54-13.57,12.42-22a12.09,12.09,0,0,0-1.21-7.42c-1.38-2.36-3.85-4-6.39-5.24a21.41,21.41,0,0,0-8.7-2.48,12.66,12.66,0,0,0-7.6,2.23c-2,1.4-2.49,3.49-3.34,5.69C309.26,120.68,307.34,126.63,307,132.77Z" transform="translate(-10.33 -46.29)" fill="url(#linear-gradient-7)"></path><path d="M297.81,135.31l7.3-10.72a2.5,2.5,0,0,1,3.64-.54l7,5.68a2.52,2.52,0,0,1,.52,3.34l-14,21.13a2.52,2.52,0,0,1-3.76.49l-4-3.56a2.49,2.49,0,0,1-.74-2.57L297.47,136A2.58,2.58,0,0,1,297.81,135.31Z" transform="translate(-10.33 -46.29)" fill="#3e3e54"></path><path d="M296.37,135.31l7.3-10.72a2.5,2.5,0,0,1,3.64-.54l7,5.68a2.52,2.52,0,0,1,.52,3.34l-14,21.13a2.52,2.52,0,0,1-3.76.49l-4-3.56a2.49,2.49,0,0,1-.74-2.57L296,136A2.58,2.58,0,0,1,296.37,135.31Z" transform="translate(-10.33 -46.29)" fill="#3e3e54"></path><path d="M288.54,141.63a69.86,69.86,0,0,1,4.85-7,6.13,6.13,0,0,1,2-1.67,2.58,2.58,0,0,1,2.5.07.54.54,0,0,1,.21.24.55.55,0,0,1-.06.35,7.22,7.22,0,0,1-1.21,2,7.38,7.38,0,0,0-.94,1.15,1.5,1.5,0,0,0-.1,1.42,2.17,2.17,0,0,0,.58.59l2.62,2.07a13.7,13.7,0,0,0,2.33,1.59c1,.52,2.2.83,2.87,1.75,1.08,1.48.13,3-.17,4.53a4.16,4.16,0,0,1-2.3,3.33,25.14,25.14,0,0,1-8,3.06c-2.07.41-4.36.52-6.13-.62a5.77,5.77,0,0,1-2.62-3.77,9,9,0,0,1,.23-1.95,6.14,6.14,0,0,1,.21-2.48,12.32,12.32,0,0,1,1.67-2.51C287.58,143.05,288.06,142.35,288.54,141.63Z" transform="translate(-10.33 -46.29)" fill="url(#linear-gradient-8)"></path><path d="M309.49,108.21a9.87,9.87,0,0,0-2.12,7.24,1.39,1.39,0,0,0,.21.67,1.44,1.44,0,0,0,.94.4,63.11,63.11,0,0,0,10.64.66c-.44,1.09.39,2.3,1.41,2.88s2.21.75,3.25,1.28a5.49,5.49,0,0,1,2.82,3.53c.21.85.22,1.73.43,2.57a2.76,2.76,0,0,0,1.49,2c.47.17,1.05.2,1.3.63a1.42,1.42,0,0,1,.1.82,24,24,0,0,1-1.39,5.91c2.11-1.19,1.59-5,3.85-5.93a3.51,3.51,0,0,1,1.06,3.92,7.71,7.71,0,0,1-2.63,3.39c3.21-2.75,5.15-6.66,7-10.46.93-1.9,1.85-4.18.83-6a6.47,6.47,0,0,1-.79-1.43,3.32,3.32,0,0,1,.05-1.4,11.91,11.91,0,0,0-.26-5.57,10.79,10.79,0,0,0-2.13-3.56,17.42,17.42,0,0,0-12.63-5.84c-2.37-.07-4.55.67-6.85.89A9.39,9.39,0,0,0,309.49,108.21Z" transform="translate(-10.33 -46.29)" fill="#3e3e54"></path><path d="M217.7,180.12s87.8-6.68,93.81-6,20.94,10.51,20.94,10.51L222,185.46A55.76,55.76,0,0,1,217.7,180.12Z" transform="translate(-10.33 -46.29)" fill="url(#linear-gradient-9)"></path></svg>