<svg id="Layer_1" data-name="Layer 1" xmlns="http://www.w3.org/2000/svg" xmlns:xlink="http://www.w3.org/1999/xlink" viewBox="0 0 313.95 309.6" width="406" height="306" class="illustration styles_illustrationTablet__1DWOa"><defs><linearGradient id="linear-gradient" x1="346.61" y1="277.66" x2="-144.59" y2="13.66" gradientUnits="userSpaceOnUse"><stop offset="0.01"></stop><stop offset="0.08" stop-opacity="0.69"></stop><stop offset="0.21" stop-opacity="0.32"></stop><stop offset="1" stop-opacity="0"></stop></linearGradient><linearGradient id="linear-gradient-2" x1="279.86" y1="116.62" x2="319.35" y2="118.51" gradientUnits="userSpaceOnUse"><stop offset="0.01"></stop><stop offset="0.13" stop-opacity="0.69"></stop><stop offset="0.25" stop-opacity="0.32"></stop><stop offset="1" stop-opacity="0"></stop></linearGradient><linearGradient id="linear-gradient-3" x1="211.84" y1="129.72" x2="291.54" y2="79.59" xlink:href="#linear-gradient-2"></linearGradient></defs><title>3</title><path d="M123.53,25.77c-12.11,5.21-24,11.48-33.4,20.72C80.54,55.93,74,68,66.85,79.35c-10.74,17-23.43,33.13-30.2,52.07s-6.37,42.14,7.27,56.93c9,9.77,22.81,15,29.55,26.41,10,17,0,39.3,5.26,58.36C82.18,285.51,91.94,295.33,103,302a83.42,83.42,0,0,0,63.17,9.21c18.51-4.79,35-15.9,53.64-20,21.81-4.82,44.48.31,66.81-.05s47.59-8.89,55.6-29.75C351,238.5,335,214.23,331,190.05c-3.31-20.23,2-40.78,7.54-60.52C350.83,85.75,355.33,22.38,299,10.68,241.79-1.19,177.22,2.69,123.53,25.77Z" transform="translate(-32.36 -4.15)" fill="#dc605c" opacity="0.18" style="isolation: isolate;"></path><polygon points="55.34 106.55 176.16 77.75 171.2 205.61 55.34 217.26 55.34 106.55" fill="#dc605c" opacity="0.18" style="isolation: isolate;"></polygon><polygon points="192.4 45.12 290.52 21.63 290.52 188.58 160.82 199.89 169.62 50.55 192.4 45.12" fill="#dc605c"></polygon><polygon points="252.15 144.82 252.93 122.95 194.41 129.8 196.58 89.22 223.56 84.59 224.72 58.94 222.95 59.48 221.82 84.16 194.6 88.77 192.31 131.04 251.39 123.99 250.66 144.11 224.39 147.58 223.45 168.74 204.44 173.01 203 174.32 225.18 169.29 226.1 148.33 252.15 144.82" fill="#fff"></polygon><polygon points="266.17 111.4 231.42 114.48 230.92 126.3 232.64 125.46 233.07 115.23 265.15 112.31 266.17 111.4" fill="#fff"></polygon><polygon points="257.28 94.48 244.74 96.73 245.6 74.19 223.48 77.13 222.52 78.01 244.01 75.11 243.13 97.75 256.45 95.33 257.28 94.48" fill="#fff"></polygon><polygon points="246.29 56.36 246.67 46.57 245.1 47.03 244.75 55.92 216.29 59.98 215.5 60.8 246.29 56.36" fill="#fff"></polygon><path d="M237.18,177.28c.06-1.29-.59-3-3.46-1.41a7.4,7.4,0,0,0-3.89,5.65c-.07,1.31.6,3.09,3.53,1.38A7.42,7.42,0,0,0,237.18,177.28Zm-5.3,3.06a6,6,0,0,1,1.86-3.8c.47-.17,1.53.24,1.44,1.89a6.11,6.11,0,0,1-1.78,3.75C232.79,182.38,231.8,182,231.88,180.34Z" transform="translate(-32.36 -4.15)" fill="#fff"></path><path d="M302.41,114c0-1.06-.44-2.58-2.44-1.6a5,5,0,0,0-2.67,4.15c0,1.07.46,2.61,2.49,1.58A5,5,0,0,0,302.41,114Zm-3.69,1.84A4.25,4.25,0,0,1,300,113c.33-.09,1.07.38,1,1.73a4.36,4.36,0,0,1-1.21,2.85C299.39,117.66,298.68,117.18,298.72,115.86Z" transform="translate(-32.36 -4.15)" fill="#fff"></path><path d="M293.81,97.56c0-1.07-.46-2.64-2.56-1.74a4.74,4.74,0,0,0-2.79,4.1c0,1.09.46,2.68,2.59,1.72A4.77,4.77,0,0,0,293.81,97.56Zm-3.87,1.7a4.11,4.11,0,0,1,1.33-2.87c.35-.07,1.13.44,1.08,1.81a4.13,4.13,0,0,1-1.28,2.85C290.63,101.12,289.9,100.6,289.94,99.26Z" transform="translate(-32.36 -4.15)" fill="#fff"></path><path d="M281.15,48c0-1.09-.48-2.75-2.71-2.13a4.06,4.06,0,0,0-3,3.75c0,1.1.49,2.79,2.75,2.12A4.1,4.1,0,0,0,281.15,48ZM277,49.2a3.45,3.45,0,0,1,1.42-2.72c.37,0,1.19.6,1.14,2a3.55,3.55,0,0,1-1.37,2.7C277.77,51.18,277,50.55,277,49.2Z" transform="translate(-32.36 -4.15)" fill="#fff"></path><path d="M249.13,64.41c.05-1.19-.55-3-3.2-2.2a4.81,4.81,0,0,0-3.57,4.25c-.06,1.21.56,3,3.25,2.19A4.83,4.83,0,0,0,249.13,64.41Zm-4.89,1.48a4,4,0,0,1,1.71-3c.44-.05,1.41.6,1.34,2.13a4.08,4.08,0,0,1-1.64,3C245.09,68,244.17,67.38,244.24,65.89Z" transform="translate(-32.36 -4.15)" fill="#fff"></path><path d="M168.09,97.61a8.7,8.7,0,0,1-16.91,2.89,8.44,8.44,0,0,1-.5-2.89,8.71,8.71,0,1,1,17.41,0Z" transform="translate(-32.36 -4.15)" fill="#dc605c" opacity="0.82" style="isolation: isolate;"></path><path d="M165.46,93.83a8.7,8.7,0,0,1-8.7,8.71,8.56,8.56,0,0,1-5.58-2,8.44,8.44,0,0,1-.5-2.89A8.71,8.71,0,0,1,165,90.93,8.74,8.74,0,0,1,165.46,93.83Z" transform="translate(-32.36 -4.15)" fill="#fff" opacity="0.55" style="isolation: isolate;"></path><path d="M158.07,69.35a4.35,4.35,0,0,1-8.45,1.45,4.09,4.09,0,0,1-.25-1.45A4.35,4.35,0,0,1,153.72,65a4.27,4.27,0,0,1,2.79,1A4.34,4.34,0,0,1,158.07,69.35Z" transform="translate(-32.36 -4.15)" fill="#dc605c" opacity="0.82" style="isolation: isolate;"></path><path d="M156.76,67.47a4.35,4.35,0,0,1-4.35,4.35,4.27,4.27,0,0,1-2.79-1,4.09,4.09,0,0,1-.25-1.45A4.35,4.35,0,0,1,153.72,65a4.27,4.27,0,0,1,2.79,1A4.33,4.33,0,0,1,156.76,67.47Z" transform="translate(-32.36 -4.15)" fill="#fff" opacity="0.55" style="isolation: isolate;"></path><path d="M197.53,50.62a4.35,4.35,0,0,1-8.46,1.44,4.31,4.31,0,0,1-.24-1.44,4.36,4.36,0,0,1,4.35-4.36,4.29,4.29,0,0,1,2.79,1A4.36,4.36,0,0,1,197.53,50.62Z" transform="translate(-32.36 -4.15)" fill="#dc605c" opacity="0.82" style="isolation: isolate;"></path><path d="M196.22,48.73a4.35,4.35,0,0,1-7.15,3.33,4.31,4.31,0,0,1-.24-1.44,4.36,4.36,0,0,1,4.35-4.36,4.29,4.29,0,0,1,2.79,1A4.33,4.33,0,0,1,196.22,48.73Z" transform="translate(-32.36 -4.15)" fill="#fff" opacity="0.55" style="isolation: isolate;"></path><g opacity="0.82" style="isolation: isolate;"><polygon points="135.03 90.83 134.13 90.5 142.97 65.66 124.8 64.75 124.85 63.79 144.31 64.76 135.03 90.83" fill="#dc605c"></polygon></g><polygon points="156.28 65.69 143.64 65.69 143.64 64.73 155.54 64.73 159.71 49.03 160.64 49.28 156.28 65.69" fill="#dc605c"></polygon><path d="M131.2,251.17a8.71,8.71,0,1,1,3.94-11.66,8.59,8.59,0,0,1,.66,5.9A8.71,8.71,0,0,1,131.2,251.17Z" transform="translate(-32.36 -4.15)" fill="#dc605c" opacity="0.82" style="isolation: isolate;"></path><path d="M133.42,247.14a8.7,8.7,0,0,1-12.31-9.85,8.69,8.69,0,0,1,14,2.22,8.59,8.59,0,0,1,.66,5.9A8.52,8.52,0,0,1,133.42,247.14Z" transform="translate(-32.36 -4.15)" fill="#fff" opacity="0.55" style="isolation: isolate;"></path><path d="M152.09,229.66a4.35,4.35,0,1,1,2.3-2.88A4.35,4.35,0,0,1,152.09,229.66Z" transform="translate(-32.36 -4.15)" fill="#dc605c" opacity="0.82" style="isolation: isolate;"></path><path d="M153.2,227.65a2.26,2.26,0,1,1,1.19-.87A4.51,4.51,0,0,1,153.2,227.65Z" transform="translate(-32.36 -4.15)" fill="#fff" opacity="0.55" style="isolation: isolate;"></path><path d="M186.38,256.72a4.35,4.35,0,0,1-5-6.94,4.71,4.71,0,0,1,1.19-.86,4.35,4.35,0,0,1,3.86,7.8Z" transform="translate(-32.36 -4.15)" fill="#dc605c" opacity="0.82" style="isolation: isolate;"></path><path d="M187.49,254.71a4.35,4.35,0,0,1-6.16-4.93,4.71,4.71,0,0,1,1.19-.86,4,4,0,1,1,5,5.79Z" transform="translate(-32.36 -4.15)" fill="#fff" opacity="0.55" style="isolation: isolate;"></path><g opacity="0.82" style="isolation: isolate;"><polygon points="100.9 245.22 100.79 244.27 126.98 241.19 119.74 224.49 120.62 224.11 128.38 241.99 100.9 245.22" fill="#dc605c"></polygon></g><polygon points="132.85 253.12 127.25 241.8 128.11 241.37 133.38 252.04 149.3 248.81 149.49 249.76 132.85 253.12" fill="#dc605c"></polygon></svg>